<svg width="66" height="66" viewBox="0 0 66 66" fill="none" xmlns="http://www.w3.org/2000/svg">
<g filter="url(#filter0_d)">
<rect x="7" y="6" width="52" height="52" rx="26" fill="url(#paint0_linear)"/>
<rect x="7" y="6" width="52" height="52" rx="26" fill="url(#paint1_linear)" fill-opacity="0.4"/>
<rect x="7" y="6" width="52" height="52" rx="26" fill="url(#paint2_linear)" fill-opacity="0.4"/>
</g>
<path d="M38.0904 37.1428C38.0904 36.0248 38.0904 35.1198 38.119 34.4278C38.1475 33.6293 38.4048 33.3098 39.0906 33.2034C39.3764 33.1501 39.5765 33.1235 39.7765 33.1235C39.948 33.1235 40.0909 33.0171 40.0909 32.884C40.0909 32.6976 39.9194 32.671 39.5765 32.671C38.7477 32.671 37.4331 32.7243 36.6329 32.7243C35.8898 32.7243 34.0894 32.671 32.7747 32.671C32.4318 32.671 32.2317 32.6976 32.2317 32.884C32.2317 33.0171 32.4032 33.1235 32.6318 33.1235C32.9748 33.1235 33.4035 33.1501 33.6035 33.2034C34.4037 33.4163 34.6609 33.6559 34.6895 34.4278C34.7181 35.1198 34.7181 35.9716 34.7181 37.0895V39.1657C34.7181 39.565 34.6038 39.8045 34.2322 39.9642C33.6321 40.2038 33.1177 40.2038 32.4604 40.2038C27.0875 40.2038 23.7152 36.6637 23.7152 31.7926C23.7152 29.0244 24.6298 27.3475 26.0301 26.2828C27.7734 24.9786 29.5167 24.9519 30.8885 24.9519C33.7178 24.9519 35.604 25.9634 36.3471 26.6821C37.0044 27.3209 37.1473 28.0396 37.2044 28.5453C37.233 28.7316 37.2902 28.8381 37.4617 28.8381C37.6617 28.8381 37.8046 28.6784 37.8046 28.3324C37.8046 25.4843 37.9761 24.8721 37.9761 24.6059C37.9761 24.4462 37.9189 24.3664 37.6331 24.3397C37.033 24.3131 36.147 24.18 35.6326 24.1002C35.1182 23.9937 32.9176 23.7275 31.1743 23.7275C29.0595 23.7275 26.8018 23.8872 24.4011 25.1915C22.0863 26.4425 20 28.9712 20 32.5912C20 38.8463 25.4586 41.4548 31.6316 41.4548C33.6035 41.4548 36.0899 41.2153 37.776 40.4433C38.0904 40.2836 38.0904 40.257 38.0904 39.6448V37.1428Z" fill="white"/>
<path d="M45.3991 22.3205C45.7252 21.9078 45.9426 21.6452 46.1927 21.5889C46.3449 21.5514 46.4753 21.5326 46.584 21.5326C46.6927 21.5326 46.7579 21.5045 46.7579 21.4482C46.7579 21.3919 46.6818 21.3638 46.5623 21.3638C46.16 21.3638 45.7143 21.3919 45.4969 21.3919C45.2904 21.3919 44.8338 21.3638 44.4098 21.3638C44.2576 21.3638 44.1815 21.3919 44.1815 21.4482C44.1815 21.5138 44.2468 21.5326 44.312 21.5326C44.399 21.5326 44.5512 21.5326 44.6599 21.5607C44.7686 21.5889 44.8447 21.6639 44.8447 21.7296C44.8447 21.8046 44.8121 21.9547 44.7251 22.086C44.562 22.3486 43.5619 23.6524 43.2467 24.0651C42.8227 23.4273 42.3335 22.7426 41.8661 21.9922C41.8008 21.889 41.7573 21.7765 41.7573 21.7202C41.7573 21.6639 41.79 21.5983 41.8878 21.5701C41.9748 21.542 42.1161 21.5326 42.1813 21.5326C42.2791 21.5326 42.3444 21.5138 42.3444 21.4482C42.3444 21.3825 42.2791 21.3638 42.127 21.3638C41.7247 21.3638 41.116 21.3919 40.9638 21.3919C40.4528 21.3919 39.5723 21.3638 39.3114 21.3638C39.1701 21.3638 39.094 21.3825 39.094 21.4388C39.094 21.5045 39.1375 21.5326 39.2027 21.5326C39.3114 21.5326 39.4853 21.5514 39.6593 21.5983C40.0397 21.7014 40.3006 21.9265 40.5616 22.3017L42.4313 24.9749L40.355 27.5355C39.9854 27.9857 39.7788 28.1639 39.4636 28.2389C39.3005 28.2765 39.1375 28.2858 39.0614 28.2858C38.9744 28.2858 38.9092 28.314 38.9092 28.3703C38.9092 28.4265 38.9635 28.4547 39.0722 28.4547H39.257C39.431 28.4547 39.9637 28.4265 40.1702 28.4265C40.442 28.4265 41.1268 28.4547 41.1921 28.4547H41.3877C41.5291 28.4547 41.6052 28.4359 41.6052 28.3703C41.6052 28.314 41.5399 28.2858 41.4747 28.2858C41.3877 28.2858 41.2899 28.2765 41.2247 28.2671C41.1268 28.2483 41.029 28.1921 41.0181 28.1076C41.0073 28.0045 41.0616 27.8638 41.1703 27.7137L42.7792 25.472C43.2793 26.1755 43.8989 27.104 44.4968 28.0232C44.5729 28.1452 44.5294 28.2296 44.4751 28.2389C44.3772 28.2577 44.3229 28.2858 44.3229 28.3421C44.3229 28.4078 44.4098 28.4265 44.6925 28.4359C45.5295 28.4547 46.3883 28.4547 46.6492 28.4547H46.9754C47.0949 28.4547 47.1819 28.4265 47.1819 28.3609C47.1819 28.3046 47.1167 28.2858 47.0406 28.2858C46.9427 28.2858 46.8123 28.2765 46.6275 28.2296C46.3449 28.1545 46.1818 28.042 45.997 27.8356C45.7252 27.5355 43.9641 24.9936 43.6163 24.534L45.3991 22.3205Z" fill="white"/>
<defs>
<filter id="filter0_d" x="0" y="0" width="66" height="66" filterUnits="userSpaceOnUse" color-interpolation-filters="sRGB">
<feFlood flood-opacity="0" result="BackgroundImageFix"/>
<feColorMatrix in="SourceAlpha" type="matrix" values="0 0 0 0 0 0 0 0 0 0 0 0 0 0 0 0 0 0 127 0"/>
<feMorphology radius="1" operator="dilate" in="SourceAlpha" result="effect1_dropShadow"/>
<feOffset dy="1"/>
<feGaussianBlur stdDeviation="3"/>
<feColorMatrix type="matrix" values="0 0 0 0 0.215557 0 0 0 0 0.413316 0 0 0 0 0.679437 0 0 0 0.58 0"/>
<feBlend mode="normal" in2="BackgroundImageFix" result="effect1_dropShadow"/>
<feBlend mode="normal" in="SourceGraphic" in2="effect1_dropShadow" result="shape"/>
</filter>
<linearGradient id="paint0_linear" x1="33" y1="8.5" x2="33" y2="58" gradientUnits="userSpaceOnUse">
<stop offset="0.00439464" stop-color="#2F80ED"/>
<stop offset="1" stop-color="#2771D5"/>
</linearGradient>
<linearGradient id="paint1_linear" x1="7" y1="24" x2="48.5" y2="51" gradientUnits="userSpaceOnUse">
<stop stop-color="#85B9FF"/>
<stop offset="1" stop-color="#07459A"/>
</linearGradient>
<linearGradient id="paint2_linear" x1="45.5" y1="10.5" x2="33" y2="58" gradientUnits="userSpaceOnUse">
<stop stop-color="#2F80ED"/>
<stop offset="1" stop-color="#155EC0"/>
</linearGradient>
</defs>
</svg>
